<?xml version="1.0" encoding="utf-8"?>
<!-- Generator: Adobe Illustrator 19.0.0, SVG Export Plug-In . SVG Version: 6.00 Build 0)  -->
<svg version="1.1" id="Layer_1" xmlns="http://www.w3.org/2000/svg" xmlns:xlink="http://www.w3.org/1999/xlink" x="0px" y="0px"
	 viewBox="-53 144 505 505" style="enable-background:new -53 144 505 505;" xml:space="preserve">
<style type="text/css">
	.st0{fill:#F6DE1E;}
	.st1{fill:#513F26;}
	.st2{fill:#584528;}
	.st3{fill:#008542;}
	.st4{fill:#54472E;}
	.st5{fill:#B71234;}
</style>
<g>
	<rect x="-53" y="144.5" class="st0" width="504.7" height="504.5"/>
	<g>
		<g>
			<g>
				<path class="st1" d="M-6.4,523.6H5.2c0,0.3,0,0.6,0,1.1c0,0.4,0,0.8,0,0.9c0,2.1,0.3,3.6,0.9,4.4c0.6,0.8,1.6,1.3,2.9,1.3
					c1.4,0,2.4-0.3,3-0.9c0.6-0.6,0.9-1.7,0.9-3.2c0-2-0.3-3.5-0.9-4.5c-0.6-1.1-2-2.4-4.1-4c-3.1-2.3-5.3-3.9-6.6-5
					c-1.3-1.1-2.4-2-3.1-2.7c-1.2-1.1-2-2-2.5-2.6c-0.5-0.7-0.9-1.3-1.2-2c-0.3-0.7-0.5-1.5-0.6-2.5c-0.1-1-0.2-2.4-0.2-4
					c0-4.7,1.3-8.1,3.8-10.1c2.5-2.1,6.7-3.1,12.5-3.1c5.1,0,8.8,1.1,11.1,3.3s3.5,5.7,3.5,10.5c0,0.6,0,1.4-0.1,2.6
					c0,0.2,0,0.3,0,0.4H12.5v-1.7c0-2.1-0.2-3.6-0.7-4.4s-1.4-1.1-2.7-1.1c-1.3,0-2.3,0.3-2.8,0.9c-0.6,0.6-0.9,1.7-0.9,3.2
					c0,2.5,1.5,4.8,4.5,6.9c0.5,0.4,0.9,0.7,1.2,0.9c2.6,2,4.7,3.6,6.4,5c1.7,1.3,2.8,2.3,3.3,2.9c1.1,1.2,1.9,2.3,2.4,3.2
					c0.5,0.9,0.9,1.9,1.3,2.9c0.1,0.3,0.1,0.9,0.2,1.7c0,0.9,0.1,2,0.1,3.5c0,5.1-1.1,8.7-3.4,10.7c-2.3,2-6.2,3-11.9,3
					c-5.7,0-9.7-1-12.2-3.1c-2.5-2.1-3.7-5.5-3.7-10.2c0-0.5,0-1.5,0.1-2.9C-6.5,524.2-6.4,523.9-6.4,523.6z"/>
				<path class="st1" d="M29.9,539.8l10.3-52.3h16.1l10.3,52.3H54.2l-1.4-9.2h-9.2l-1.4,9.2H29.9z M45,521.2h6.5l-3.2-24.6L45,521.2
					z"/>
				<path class="st1" d="M103.7,527.2c0,5.1-1.1,8.7-3.4,10.7c-2.3,2-6.3,3-12.2,3c-5.9,0-10-1-12.2-3c-2.3-2-3.4-5.5-3.4-10.7
					v-27.1c0-5.2,1.1-8.7,3.4-10.7c2.3-2,6.3-3,12.2-3c5.9,0,9.9,1,12.2,3c2.3,2,3.4,5.5,3.4,10.7v5.9H91.8v-5.7
					c0-1.7-0.3-2.9-0.9-3.6s-1.6-1.1-2.9-1.1c-1.3,0-2.2,0.4-2.8,1.1c-0.6,0.7-0.8,1.9-0.8,3.5v26.9c0,1.7,0.3,2.8,0.8,3.5
					c0.5,0.7,1.5,1,2.8,1c1.4,0,2.3-0.4,2.9-1.1c0.6-0.8,0.9-2,0.9-3.9v-6.2h11.9V527.2z"/>
				<path class="st1" d="M124.7,508.4c0.2,0,0.5,0,0.7,0.1c0.3,0,0.7,0,1.2,0c1.8,0,3.1-0.3,3.9-0.9c0.8-0.6,1.3-1.5,1.3-2.7v-4.7
					c0-1.2-0.4-2.1-1.3-2.7c-0.9-0.6-2.2-0.9-3.9-0.9c-0.5,0-0.9,0-1.1,0c-0.3,0-0.5,0-0.7,0.1V508.4z M132.6,537.4v-16.1
					c0-1.4-0.4-2.4-1.3-3.1c-0.9-0.7-2.3-1-4.1-1c-0.2,0-0.5,0-0.9,0c-0.3,0-0.9,0.1-1.5,0.1v22.5h-11.5v-52.3h16.2
					c4.4,0,7.8,0.8,10.3,2.5c2.5,1.7,3.7,4,3.7,7v7.6c0,2.3-0.7,4.1-2.2,5.4c-1.5,1.4-3.5,2.1-6.1,2.3c3.1,0.2,5.4,1.1,6.9,2.6
					c1.5,1.5,2.2,3.8,2.2,6.8v15.6c0.1,0.5,0.3,0.9,0.6,1.3c0.3,0.4,0.6,0.8,1,1.2h-11.7c-0.5-0.3-1-0.6-1.2-1
					C132.8,538.5,132.6,538,132.6,537.4z"/>
				<path class="st1" d="M150.3,539.8l10.3-52.3h16.1l10.3,52.3h-12.4l-1.4-9.2H164l-1.4,9.2H150.3z M165.3,521.2h6.5l-3.2-24.6
					L165.3,521.2z"/>
				<path class="st1" d="M224.1,539.8h-11.7l-8.2-44.4l0.5,44.4h-11v-52.3h18.7l1.8,11.7l0.5,3c1.8,11.8,3.1,20.4,3.7,25.6
					c0.5-3.8,1-8.2,1.8-13.1c0.7-4.9,1.5-10.1,2.3-15.5l1.8-11.7h18.7v52.3h-11l0.4-44.4L224.1,539.8z"/>
				<path class="st1" d="M278.8,487.6v9.5h-13.5v10.7h13v9.5h-13v13h13.5v9.5h-25.2v-52.3H278.8z"/>
				<path class="st1" d="M312,539.8c-2.3-7.2-4.4-14.4-6.4-21.4s-3.9-14-5.7-21l0.3,42.4h-10.8v-52.3h16.2
					c2.4,7.9,4.6,15.4,6.6,22.5c2,7.1,3.8,13.7,5.4,19.9l-0.3-42.4h11v52.3H312z"/>
				<path class="st1" d="M344.9,539.8v-42.6h-8.9v-9.7h29.5v9.7h-8.8v42.6H344.9z"/>
				<path class="st1" d="M384.3,500.4V527c0,1.6,0.3,2.8,0.9,3.6c0.6,0.8,1.5,1.1,2.8,1.1c1.5,0,2.5-0.3,3.1-1
					c0.6-0.7,0.9-2.1,0.9-4.1v-26.1c0-1.8-0.3-3.1-0.8-3.8c-0.6-0.7-1.5-1-2.9-1c-1.3,0-2.3,0.4-2.9,1.1S384.3,498.7,384.3,500.4z
					 M403.6,527.2c0,5.2-1.1,8.7-3.4,10.7c-2.3,2-6.3,3-12.1,3c-5.9,0-10-1-12.2-3c-2.3-2-3.4-5.5-3.4-10.7v-27.1
					c0-5.2,1.1-8.7,3.4-10.7c2.3-2,6.3-3,12.2-3c5.8,0,9.9,1,12.1,3c2.3,2,3.4,5.5,3.4,10.7V527.2z"/>
			</g>
		</g>
	</g>
	<g>
		<g>
			<path class="st2" d="M172,423.8c-0.5,0-0.7,1-1.1,1.3c-0.9,0.9-2.6-0.6-2.9,1c-0.3,1-1.8,1.2-2.5,0.9c-0.1-2-1.7-0.7-2.7-0.1
				c-0.8,1-2.3-0.1-3.2,0c-0.6-0.2-1.7-0.1-1.4-1c0.8-0.6-0.2-2.2-0.7-1.1c-0.8,0.1-0.3,0.6-0.9,0.7c-1.2,1.1-0.1-1.7-1.5-1.1
				c-0.4,1.4-2.2,1.6-3.6,1.6c-1.1,0.1-2.2,0.7-3.4,0.5c-0.1,0-0.1,0-0.2,0.1l-5.2,0.2l-6,1.3c-3.3,0.7-6.2,1.4-6.5,1.4
				c-0.5,0-0.8,0.1-1.5,0.4c-0.3,0.1-40.7,9.1-40.8,9.1l-1.5-0.6l-0.5-0.1l-0.7-0.1l-1.4-0.3l-1-0.7l-0.3-0.4h-0.8l-0.9,0.4
				l-0.7-0.2l-1.1,0.1l-1.4,0.5l-0.7-0.2l-0.9,0.1l-0.5,0.2l-0.3-0.2l0.1-0.6l-0.1-0.9l-0.8,0l-0.6,0.7l-1,1.1l-0.7,0l-0.6-0.5
				l-0.5-0.4l-0.5,0.1l-0.2,0.2l-1.6,1.5l-0.2,0.2l-0.7,0.2l-0.7-0.2l-0.4-0.2l-0.7,0.6l-0.5,1.1l-0.6,0.4l-1.5,0.4L63,441l-0.4-0.7
				l-1.6,0.3l-0.4,0.3l-0.4,0.1l-0.9-0.9l-0.5-0.6l-0.6-0.1l-0.5,0.2l-0.8,0.3l-1.2-0.1l-0.2,0.7l0.2,0.3l0.4,1.1l-0.4,0.6l-1.1,0.4
				l-0.2,0.5l-0.4,0.5l-0.6,0.2l-1,0.2l-0.9,0.3l-0.5,0.2l-1.4,0.5h-0.9l-0.4-0.2l-0.7,0.3l-1,0.2l-0.6-0.6l-1.2-0.9l-0.6,0.5
				L43,446l-1.3-0.2l-0.2-0.8l-0.5-0.7l-0.5,0.4l-0.3,0.5l-0.4,0l-0.2-0.8l0-0.6H39l-0.6,0.5l-0.5,0.8l-0.4,0.2l-0.4-0.4l-0.3-1
				l-0.2-0.6l-0.7-0.1l-0.1,0.7l-0.1,0.5l-0.1,0.4l-0.3,1.3l-0.4,0.4l-0.4-0.2l-0.3-0.4l-0.5-1.2h-0.6l-0.2,1l-0.6,1l-1.9,2.2
				l-1.6,0.2l-0.7-1.7l-0.3-0.1l-0.2,0.4l-0.5,1.5l-0.7,0.2l-1.1,0.1l-0.5,0.4l-0.5,0l-0.1-0.4l-0.4-0.7l-0.5,0.6l-0.3,0.9l-1.5,1
				l-1.5,0.1l-3.2,2l-1-0.2h-0.7l-2,1.1l-1.2,0.3l-1.6,0.5l-0.9,0l-0.6-0.2l-1.3,0.2L6,455.7l-2.9,0.6l-0.5,0
				c-1,0.8-2.2,1.3-3.4,1.6c-0.4,0-1.1,0.2-1.8,0.4c-0.5,0.2-0.6,0.2-0.6,0.5c-0.2,0.4-0.4,0.7-0.3,1.1c0.7,0.5,2.8,0.8,4.3,0.8
				c0.1,0.2,1.2,0.2,1.5,0c5.8,0,10.4-0.5,15.5,0.3c1.1,0.2,2.2,0.3,2.5,0.2c2.1,0,4.2,0.1,6.4,0.1c0.6,0,1.2,0,1.8,0
				c0.5,0,1.9,0,3-0.1c2.5,0,4-0.1,4.1-0.2c2.1,0.9,4.3,0.8,6.4,0.9c0.2,0.1,1.3,0.2,4,0.2c0.6,0,1.2,0.1,1.7,0.1
				c7.5-0.4,14.5-1.2,22-1.6c1.2-0.1,2.6-0.3,3.7-0.3c0,0,1.3,0,3.1-0.1c0.7,0,1.3-0.1,1.9-0.1c0.4-0.1,2.9-0.2,4.1-0.1
				c7.4,0.4,14,0.3,21.3,1c0.3,0.1,1.4,0.2,1.9,0.2c6.2,0,11.6,0.5,17.8,0.7c1.2,0.1,2.5,0,3.7,0.2c1.5,0.1,3,0.1,4.5,0.3
				c0.3,0,0.7,0.1,0.7,0.1c4.4,0.6,9.1,0.6,13.5,1.3c0.3,0.1,2,0.1,2.2,0c0.7,0,1.5-0.1,2.2-0.2c0.9,0,1.7-0.4,2.2,0
				c0.2-0.1,1.2-0.2,1.4-0.1c1.8-0.3,3.6,0,5.5-0.1c1.8,0,3.7-0.2,5.5-0.2c1.2,0,2.4-0.2,3.5-0.2c0.5,0,1.1,0,1.6-0.1
				c0.4-0.1,0.9-0.1,1.3-0.1c2.3,0,4.7-0.6,7-0.4c1.9-0.3,3.6-0.3,5.3-0.5c2.2,0,4.3-0.5,6.5-0.5c3.6-0.2,7.1-0.4,10.6-0.7
				c2.7-0.2,6.2-0.5,8.1-0.5c4.6-0.1,10.3-1,14.2-1c1.1-0.1,2.3,0,3.3-0.1c1.7,0,3.2-0.2,4.9-0.2c2.9-0.4,5.8-0.5,9-0.6
				c0.2-0.1,0.7-0.1,1.5-0.1c0.9,0,1.6-0.3,2.5-0.2c2.8-0.2,5.8-0.3,8.6-0.3c0,0.1,0.3,0.1,0.8,0c0.8,0,0.8,0,1.5,0
				c3.4,0.2,7.3-0.1,10.5,0c5.2,0.3,10.8,0.4,16,0.5c5.9,0.2,12.1,0.2,17.7,0.9c11,0.7,18.9,0,28.4,0.9c1.2,0.1,2.4,0.2,3.5,0.2
				c0.3,0,2.8,0.1,3.2,0.1c5.7-0.1,12.9-0.4,16-0.5c2.3,0,3.7-0.1,3.7-0.1c9.6-0.4,16.5-1.7,26.1-1.4c3.8-0.4,7.5,0.5,11.3,0.3
				c0.3,0,0.6,0,1,0c0.6,0,1.2,0,1.8,0.1c0.8,0,1.6-0.1,2.7-0.3c1.2-0.4,1.7-1.3,1.6-2.6c-0.1-0.7-0.2-0.9-0.7-1.1
				c-0.7-0.3-1.5-0.6-2.1-1c-0.3-0.2-1.2-0.5-1.3-0.5c-0.3-0.2-0.5-0.5-0.8-0.7c-0.1-0.1-0.4-0.3-0.7-0.4c-0.6-0.5-1.1-1-1.7-1.5
				c-0.3-0.3-0.5-0.4-0.8-0.4c-0.7,0-1.4-0.2-1.6-0.3c-0.1-0.1-0.2-0.1-0.4-0.1c-0.2,0-0.3,0-0.4-0.2c-0.2-0.3-0.4-0.9-0.8-0.9
				c-0.1,0-0.2,0-0.3-0.2c-0.2-0.4-0.3-0.8-0.6-1.1c-0.3-0.2-0.7-0.5-1.1-0.6c0-0.1-0.5-0.2-0.9-0.2c-0.2,0-0.3-0.1-0.5-0.4
				c-0.1-0.2-0.3-0.6-0.3-0.8c-0.1-0.6-0.3-0.8-0.5-1c-0.3-0.1-0.4-0.5-0.9-0.3c-0.2,0-1.1,0.3-1.3,0.5c-0.1,0.1-0.4,0.1-1,0.1
				c-0.4,0-0.8,0-0.9,0c-0.4-0.5-0.8-1.1-1.3-1.5c-0.1,0-0.3-0.2-0.5-0.4c-0.3-0.3-0.4-0.3-0.7-0.3c-0.5-0.4-0.8-0.7-1-1.4
				c-0.2-0.1-1.2-0.2-1.2,0c0,0.2-0.7,0.4-1,0.2c-0.1-0.1-0.2-0.2-0.3-0.4c-0.1-0.2-0.2-0.3-0.4-0.3c-0.1,0-0.4-0.1-0.6-0.2
				c-0.5-0.1-0.9-0.1-1.2,0.1c-0.1,0.1-0.4,0.3-0.5,0.4c-0.1,0.2-0.3,0.3-0.4,0.5c-0.2,0.1-0.7-0.1-0.7-0.2
				c-0.2-0.2-0.4-0.3-0.5-0.5c0-0.1-0.3-0.1-0.6,0.1c-0.3,0.2-0.4,0.2-0.5-0.2c-0.1-0.3-0.1-0.4-0.1-0.6c0.2-0.5,0-1.2-0.3-1.3
				c-0.2-0.1-0.8,0.3-0.8,0.5c-0.5-0.3-1-0.9-1.1-2.2c-0.1-0.1-0.1-0.3-0.2-0.4c-0.1-0.2-0.3-0.1-0.6,0.2c-0.3,0.4-0.7,0.7-0.9,1.2
				c-0.1,0.3-0.3,0.3-0.5,0.2c-0.1-0.1-0.2-0.2-0.2-0.5c0-0.3-0.1-0.5-0.2-0.6c-0.2-0.1-0.2-0.1-0.6,0.1c-0.4,0.7-0.9,1.7-1.9,1.2
				c-0.2-0.5,0-1.3,0.3-1.8l0.2-0.3l-0.2-0.5c-0.3-0.3-0.4-0.9-0.8-0.9c-0.4,0-0.9,0.3-1.1,0.7c-0.2,0.2-0.2,0.6-0.6,0.6
				c0,0.2-0.3,0.1-0.5-0.2c-0.2-0.2-0.3-0.3-0.4-0.3c-0.2,0-0.7,0.4-0.8,0.8c-0.1,0.2-0.2,0.3-0.4,0.4c-0.2,0.2-0.4,0.3-0.6,0.5
				c-0.1-0.2-0.4-0.3-0.5-0.6c-0.2-0.2-0.2-0.6-0.1-0.8c0.2-0.1,0.2-0.6,0.1-0.7c-0.2-0.4-0.2-0.8-0.7-0.9c-0.2,0-0.4-0.3-0.4-0.8
				c0-0.3,0-0.4,0.1-0.7c-0.2-0.7-0.2-1.3-0.9-1.7c-0.1,0-0.4,0.5-0.6,0.9c-0.2,0.2-0.3,0.5-0.6,0.6c-0.3,0.4-0.7,0.2-0.9-0.5
				c-0.2-0.5-0.4-0.8-0.6-0.8c-0.2-0.1-0.4,0-0.5,0.4c-0.1,0.2-0.1,0.4,0,1c0,0.4,0.1,0.9,0,1c-0.1,0.7-0.1,1.4-0.5,2
				c-0.3,0.2-0.9-0.3-0.9-0.7c0-0.1-0.1-0.2-0.3-0.4c-0.3-0.5-0.6-0.9-1.2-1c-0.4-0.1-0.7-0.2-0.8-0.5c-0.1-0.2-0.1-0.8,0-0.9
				c0.1-0.3,0.3-0.7,0.2-1c-0.1-0.2-0.2-0.3-0.3-0.4c-0.4,0.2-0.8,0.4-1.1,0.8c-0.4,0.2-0.7,0.5-1.2,0.4h-0.7l-0.4-0.5
				c-0.6-0.8-0.8-0.6-0.8,0.5c-0.3,0.6-0.6,1-1.1,0.6c0-0.2,0-0.2-0.2-0.1c-0.1,0-0.3,0.1-0.5,0.2c-0.1,0.1-0.4,0.1-0.5,0.1
				c-0.2,0-0.4,0.1-0.4,0.1c-0.1,0.1-0.2,0.1-0.3,0c-0.1,0-7.3-0.5-16.1-1.1l-15.9-1.1l-0.2-0.2c-0.3-0.3-0.5-0.4-0.7-0.2
				c-0.1,0.1-0.2,0.2-0.3,0.1c-0.2-0.1-0.3-0.1-0.6-0.6l-0.9-0.4l-1.1,0.1l-0.1-0.2l-0.1-0.2l-0.3-0.3l-0.8,0.4l-0.4,0.3h-0.3
				l-0.7-0.5l-0.7-0.5l-0.6,0.4l-0.8,0.1l-0.8-1.2l-0.9-0.2l-0.1,0.3l-0.5,0.6l-0.3,0.2l-0.7-0.5l-1,0.3l-1-0.5l-0.8-0.8l-0.7-0.2
				l-0.8,0.2l-0.6-0.4l-0.5-0.7l-1.1,1l-0.5-0.3l-0.6-0.2l-0.5,0.3l-0.7,1.4l-2.5,0.2l-0.2-1.4l-0.2-0.6l-0.4,0.4h-0.6l-2.1-0.2
				l-0.3-0.8l-0.3-0.8l-0.6-0.3l-1.1,1.4l-0.4,0.2l-0.4,0l-0.3-0.5l-0.5-0.4l-0.8,0.5l-0.8,0.8l-0.3,0.3l-0.8,0.2l-0.2-0.4l0-0.7
				l-0.2-1l-0.5-0.1l-0.9,0.8l-1.5,1.2l-0.1-0.7l-0.4-1l-0.6,0.4l-0.4,0.8l-0.8-0.4l-0.7-0.7l-0.3-0.2l-0.3,0.1l-1.3,1.4l-1.4,0.7
				l-0.5,0.2c0,0-20.6,2.8-32.3,2.9c-11.7,0.2-10.5-2.3-10.5-2.3c-0.1,0-0.1-0.1,0-0.7c0-0.5,0-0.7-0.1-0.8
				c-0.1-0.3-0.2-0.5-0.3-0.8c-0.1-0.1-0.1-0.2-0.1-0.2c0-0.1-0.1-0.1-0.1-0.1c-0.3,0-0.8,0-0.9,0.1c-2.2-0.3-3.1,1.2-4.5,1.5
				c-0.3,0-0.4,0-0.4,0.1c0,0.1-0.2,0.3-0.3,0.4c-0.1,0.2-0.3,0.3-0.3,0.4c0,0.1-5.5-0.2-23.6-1.2c0,0-1,0.1-2,0.1c0,0,0-0.1,0-0.1
				c-0.9,0.3-1.4-1.3-2.4-0.8c-1.1,0.7-1.5-0.3-1.7-1.2c-0.7,0.2-1.9,1.3-2.9,0.9c-1-0.9-2.4,0.7-3.6,0.4c-0.3-0.2-0.9-1.7-1.2-1
				c-1.3,1-0.3-1.7-1.6-1.4c-0.1,0.7-1,1.2-1.1,0.1C172.3,423.9,172.1,423.8,172,423.8L172,423.8z"/>
			<path class="st3" d="M172.2,427.7c-2.5,0.4-4.3,3-7,2.2c-2.3-0.6-4.5,1-6.9-0.3c-2.4-1.6-5.1-1.1-7.8-0.4
				c-15.8,1-31,6.1-46.5,9.1c-5.9,1-11.9,3.1-17.8,3.1c-2.9-1.2-6-2.1-9-0.9c-4.1-0.8-7.9,0.6-11.2,2.9c-2.3,1.9-5.6-1-7.4,0.3
				c-2.8,3.3-7.7,4.3-11.8,4.3c-1.7-0.7-3.1,1.7-5.1,0.5c-2.8-1.6-5.5,0.3-8.2,1.1c-2.9,3.3-8,2-11.7,4.3c-2.3,1.3-4.4,2.4-7,2.5
				c-3.5,1-2.8,1.3,0.7,1.2c9.1,1.4,18.4-0.2,27.5,1.4c15.6,0.5,31.1-3,46.8-1.7c18.2,1.1,36.4,1.2,54.5,3.2
				c27.9,0,55.6-3.6,83.4-4.8c27.1-2.5,54.4-0.8,81.5,0.4c15.3,0.2,30.7,1.5,46,0.2c12.6-0.9,25.4-1.9,38-1.1c-2.7-2.8-7-2.5-9-6
				c-2-0.2-2.5-2.7-4.6-1.9c-3.1-0.3-4.2-4-7.4-3.7c-1.5-0.2-3.4,1-5-0.2c-2.2-0.3-2.6-3.9-5-2.5c-1.9,0.9-4.3-0.2-5-1.6
				c-0.9,2.2-2.4,1.7-3.8,0.2c-1.3-1-1.2-4.6-2.5-1.9c-2,2.1-4.2-0.1-5.6-1.7c-2.5-2.5-6.2,0.7-9.3-0.4c-11.4-1.4-23.3-0.7-34.3-3.3
				c-3-0.2-5.8-1.1-8.8-1.2c-2.2-0.9-4.7-2.2-6.6,0c-3.8,2.1-6.3-3.3-9.9-1.9c-2.4,0.9-4.8,0.4-6.9,1.5c-1.9,0.3-2.7-3.2-4.3-0.9
				c-13.1,2.8-26.8,3.6-40.2,3.6c-3.2-0.1-7.1-1.7-8-4.5c-2.1,2-4.8,2.9-7.7,2.2c-8.2-0.3-16.5-1.3-24.7-0.8c-0.3-2-3.6-1.1-5.3-1.4
				c-2.4,1.1-4.7-0.2-6.8-1.4L172.2,427.7z"/>
			<path class="st4" d="M146.4,442.3c0,0,0-0.1,0.1-0.2c0.1-0.1,0.2-0.2,0.2-0.2c0,0,0.1-0.1,0.3-0.2c0.2-0.1,0.3-0.1,0.2-0.3
				c0-0.3,0.1-0.3,0.2-0.1c0,0.2,0.1,0.2,0.3,0.2c0.2,0,0.3-0.1,0.4-0.2c0.1-0.2,0.1-0.2,0-0.5c-0.1-0.2-0.2-0.3-0.2-0.3
				c-0.1,0-0.1-0.1-0.1-0.2c0-0.1,0.1-0.1,0.5-0.1c0.6,0,0.5,0.1,0.7-0.4c0-0.1,0.1-0.2,0.1-0.2c0.1,0,0.6,0.2,0.6,0.3
				c0,0,0.1,0.1,0.3,0.1c0.3,0,0.4-0.1,0.4-0.5c0-0.3,0-0.4,0.3-0.3c0.3,0.1,0.5,0,0.6-0.4c0.1-0.2,0.1-0.4,0.2-0.4
				c0,0,0.1,0.1,0.2,0.2c0.1,0.1,0.3,0.2,0.4,0.2c0.2,0,0.2,0.1,0.3,0.2c0,0.1,0.1,0.2,0.2,0.2c0.2,0,0.3,0.2,0.1,0.3
				c-0.1,0.1-0.2,0.1-0.1,0.2c0,0.1,0,0.2,0,0.2c0,0.2,0.3,0.1,0.5-0.2c0.2-0.3,0.4-0.4,0.6-0.2c0.1,0.1,0.2,0.1,0.3,0.1
				s0.1,0.1,0.1,0.1s0.1,0.2,0.2,0.2l0.2,0.1l0.3-0.2c0.3-0.1,0.3-0.2,0.3-0.5v-0.3l0.4-0.1l0.4-0.1l0.3,0.2
				c0.2,0.2,0.3,0.2,0.3,0.6c0,0.2,0.1,0.5,0.1,0.5c0,0,0.2,0.1,0.3,0.1c0.7,0,1.2,0.1,1.2,0.2c0.1,0.1,0.1,0.1,0.6,0
				c0.5-0.1,0.5-0.1,0.7-0.5c0.1-0.1,0.1-0.2,0.2-0.2c0.1,0,0.2,0.3,0.1,0.4c-0.2,0.1-0.1,0.2,0.1,0.2c0.2,0,0.7,0.2,0.8,0.3
				c0,0,0.1,0.1,0.2,0.1c0.2,0,0.4,0.3,0.3,0.5c-0.1,0.2-0.4,0.5-0.5,0.5c-0.1,0-0.2,0-0.2,0c-0.2,0.1-0.3,0-0.2-0.2
				c0.1-0.2-0.1-0.3-0.2-0.2c-0.1,0.1-0.1,0.1-0.3,0c-0.1-0.1-0.2-0.1-0.4,0c-0.1,0.1-0.3,0.1-0.3,0.1c0,0-0.1,0.1-0.1,0.1
				c0,0.1-0.1,0.1-0.6,0.1c-0.4,0-0.6,0.1-0.8,0.1c-0.4,0.2-0.6,0.1-0.4-0.2c0.1-0.1,0-0.2-0.1-0.1c0,0-0.2,0.1-0.3,0.1
				c-0.2,0-0.3,0-0.3,0.1c-0.1,0.1-0.5,0.1-0.5,0c0-0.1-0.1-0.1-0.4-0.1c-0.6-0.1-0.8,0-0.8,0.2c0,0.2-0.1,0.2-0.3,0.2
				c-0.2,0-0.4,0-0.4-0.1c-0.1-0.1-0.3-0.1-0.6-0.1c-0.4,0-0.5-0.1-0.6-0.1c-0.1-0.1-0.2-0.1-0.3-0.1c-0.3,0.1-0.6,0.2-0.6,0.1
				c-0.1-0.1-0.2-0.1-0.3,0c0,0.1-0.1,0.1-0.3,0.1c-0.1,0-0.2,0-0.3,0.1c0,0-0.4,0.1-0.9,0.1c-0.7,0-1,0-1.3,0.1
				c-0.4,0.1-0.4,0.1-0.5,0c-0.1-0.1-0.1-0.1-0.3,0.1c-0.2,0.1-0.3,0.2-0.7,0.1C146.6,442.3,146.4,442.3,146.4,442.3L146.4,442.3z
				 M302.1,444.5c0,0-0.1-0.1-0.1-0.2c0-0.1,0-0.1-0.3,0c-0.2,0.1-0.3,0.1-0.5,0c-0.3-0.1-1-0.1-1.2,0c-0.1,0.1-0.1,0.1-0.1,0
				c0-0.2-0.5-0.3-0.6-0.2c0,0-0.2,0.1-0.3,0.1c-0.2,0-0.2,0-0.2-0.1c0.1-0.2-0.1-0.3-0.4-0.3c-0.1,0-0.3,0-0.3-0.1c0,0-0.2,0-0.4,0
				c-0.2,0-0.5,0-0.6,0c-0.2-0.1-0.3,0-0.5,0c-0.2,0.1-0.4,0.1-0.5,0.1c-0.1,0-0.3,0-0.3,0c-0.1,0.1-0.3,0.1-1.5-0.1
				c-0.7-0.1-1.1-0.1-1.5-0.1c-0.2,0-0.6,0-0.9-0.1c-0.9-0.1-2-0.1-2.5,0c-0.6,0.1-0.8,0.1-0.8-0.1c0-0.2-0.3-0.3-0.5-0.2
				c-0.2,0-0.2,0-0.2-0.1c0-0.1,0.1-0.1,0.3-0.1c0.2,0,0.3,0,0.4-0.2c0.1-0.1,0.2-0.1,0.8-0.1c0.8,0,1,0,1-0.3
				c0-0.2-0.1-0.3-0.6-0.3c-0.3,0-0.4,0-0.4-0.1c0-0.1,0.1-0.1,0.5-0.1c0.2,0,0.6-0.1,0.8-0.2c0.2-0.1,0.5-0.2,0.8-0.2
				c0.4-0.1,0.5-0.1,0.5-0.2c0-0.1,0-0.1-0.2-0.1c-0.2,0-0.2,0-0.2-0.2c0-0.2,0-0.2-0.1-0.2c-0.2,0-0.3-0.1-0.1-0.2
				c0.1,0,0.1-0.1,0.1-0.2c0-0.2,0.4-0.3,0.9-0.3h0.4l0,0.4c0,0.5,0.2,0.8,0.5,0.8c0.1,0,0.3-0.1,0.4-0.2c0.1-0.1,0.3-0.2,0.3-0.2
				c0.1,0,0.3,0,0.6,0c0.4,0,0.4,0,0.5-0.2c0-0.1,0.1-0.2,0.2-0.3c0.1-0.1,0.1-0.2,0.1-0.4c0-0.3,0-0.3,0.1-0.4
				c0.2-0.1,0.5-0.1,0.5,0c0,0,0.1,0.2,0.3,0.4c0.2,0.3,0.3,0.4,0.3,0.7c0,0.4,0.1,0.4,0.4,0.4c0.1,0,0.3,0.1,0.5,0.2
				c0.2,0.1,0.3,0.2,0.5,0.2c0.3,0,0.3,0,0.3-0.2c0-0.3,0.2-0.3,0.3,0c0.1,0.2,0.2,0.3,0.5,0.4c0.4,0.2,0.4,0.2,0.5,0.1
				c0.1-0.1,0.1-0.2,0.1-0.2c0-0.1-0.3-0.4-0.4-0.4c-0.1,0-0.1-0.1-0.1-0.1c0-0.2,0.3-0.2,0.6,0.1c0.2,0.1,0.4,0.3,0.5,0.3
				c0.3,0.1,0.6,0.8,0.3,0.9c-0.1,0-0.1,0.2-0.1,0.3c0,0.3,0,0.3,0.2,0.2c0.2,0,0.3,0,0.4,0.1c0.1,0.1,0.2,0.1,0.4,0.1
				c0.2,0,0.2-0.1,0.2-0.2c0-0.2,0-0.2,0.3-0.3c0.5-0.2,0.6,0,0.2,0.3c-0.3,0.2-0.3,0.4,0.1,0.4c0.2,0,0.3,0,0.4-0.1
				c0.1-0.1,0.2-0.1,0.3-0.1c0.2,0,0.2,0.4,0,0.4c-0.2,0.1-0.1,0.1,0.1,0.2c0.2,0.1,0.3,0.2,0.2,0.4c0,0.1-0.2,0.1-0.3-0.1
				c-0.1-0.2-0.5-0.1-0.5,0C302.4,444.5,302.2,444.6,302.1,444.5 M200.9,447.8c0-0.1-1-0.2-1.7-0.1c-0.4,0.1-0.5,0-0.4-0.1
				c0.2-0.2,0-0.3-0.2-0.2c-0.2,0-0.2,0-0.2-0.1c0-0.1,0.1-0.1,0.2-0.1c0.1,0,0.2-0.1,0.2-0.2c0-0.1,0.1-0.1,0.2-0.1
				c0.2,0,0.5-0.1,0.6-0.3c0.1-0.2,0-0.3-0.2-0.3c-0.3,0-0.1-0.1,0.4-0.4c0.3-0.2,0.5-0.3,0.6-0.4c0.1-0.2,0.1-0.4,0-0.5
				c-0.1-0.1-0.1-0.3,0.1-0.8c0.1-0.2,0.2-0.3,0.3-0.2c0.1,0,0.1,0.1,0.1,0.2c0,0,0.1,0.1,0.1,0.2c0.1,0.1,0.2,0.1,0.3,0
				c0.3-0.2,0.5,0,0.2,0.2l-0.2,0.1l0.2,0.1c0.1,0,0.2,0.1,0.2,0.2c0,0.1,0,0.2,0.1,0.2c0.1,0,0.2,0.2,0.2,0.3
				c0.1,0.1,0.2,0.2,0.3,0.3c0.1,0.1,0.2,0.1,0.4,0c0.1,0,0.3-0.1,0.3-0.2c0.1-0.1,0.2-0.1,0.3-0.2c0.1-0.1,0.3-0.2,0.4-0.4
				c0.2-0.3,0.2-0.3,0.5-0.3c0.4,0.1,0.5,0,0.3-0.2c-0.1-0.1-0.1-0.1,0-0.2c0.1-0.1,0.1,0,0.2,0c0.1,0.1,0.2,0.1,0.5,0
				c0.4-0.1,0.6-0.3,0.4-0.5c0,0-0.1-0.1,0-0.2c0-0.1,0.4-0.1,1,0.1l0.4,0.1l0.2-0.1c0.1-0.1,0.3-0.1,0.3-0.1c0,0,0.1-0.1,0.1-0.2
				c0.1-0.3,0.3-0.3,0.3,0.1c0,0.2,0,0.3,0.1,0.3c0.1,0,0.1,0.1,0.1,0.2c0,0.1,0.1,0.2,0.2,0.2c0.2,0.1,0.2,0.2,0,0.2
				c-0.3,0-0.4,0.1-0.3,0.6c0,0.4,0,0.5,0.2,0.5c0.1,0,0.2,0,0.2-0.1c0-0.1,0.2-0.2,0.6-0.3c0.2-0.1,0.4-0.1,0.4-0.2
				c0-0.1,0.1-0.2,0.2-0.2c0.1-0.1,0.1-0.1,0.1-0.2c-0.1-0.2-0.1-0.5,0-0.5c0.1,0,0.1,0.1,0.2,0.1c0.1,0.2,0.5,0.2,0.5,0
				c0-0.1,0.1-0.1,0.2,0.1c0,0.1,0.2,0.2,0.3,0.3c0.3,0.2,0.3,0.2,0.2,0.3c-0.1,0.1-0.2,0.2-0.3,0.2c-0.2,0.1-0.2,0.3-0.1,0.7
				c0,0.2,0.1,0.2,0.4,0.3c0.2,0,0.4,0.1,0.4,0.1c0.1,0,0.3,0.1,0.6,0.1c0.4,0,0.5,0,0.6-0.1c0.1-0.1,0.3-0.2,0.6-0.1
				c0.2,0.1,0.2,0,0.4-0.2c0.3-0.3,0.4-0.3,0.5-0.1c0,0.1,0,0.2-0.1,0.3c-0.2,0.2-0.2,0.3,0.2,0.6c0.3,0.2,0.5,0.4,0.3,0.4
				c0,0-0.1,0.1-0.2,0.1c-0.1,0.1-0.2,0.1-0.5,0.1c-0.2,0-0.4,0-0.4,0c0,0-0.3,0-0.6,0c-0.4,0-0.6,0-0.6-0.1c-0.1-0.1-0.1-0.1-0.2,0
				c-0.1,0.1-0.2,0.1-0.2,0c0,0-0.2-0.1-0.3-0.1c-0.2,0-0.2,0-0.2,0.1c0,0.2-0.3,0.5-0.5,0.4c-0.1,0-0.1-0.1,0-0.3
				c0-0.2,0-0.2-0.1-0.2c-0.1,0-0.1,0.1-0.2,0.1c0,0.1-0.1,0.1-0.1,0.1c0,0-0.2,0.1-0.3,0.2c-0.2,0.2-0.4,0.2-0.4,0
				c0-0.1-0.2-0.2-0.5-0.2c-0.1,0-0.2,0-0.3-0.1c0-0.1-0.1-0.1-0.3-0.1c-0.1,0-0.2,0-0.3-0.1c0-0.1-0.6-0.1-0.6,0c0,0,0,0.2-0.1,0.2
				c-0.1,0.2-0.2,0.2-0.3,0c-0.1-0.2-0.4-0.2-0.5,0c0,0.2-0.1,0.2-0.3,0c-0.2-0.1-0.9-0.1-1.2,0.1c-0.1,0.1-0.4,0.1-2.4,0.1
				c-1.3,0-1.7,0.1-1.7,0.1C201.1,447.9,200.9,447.9,200.9,447.8 M274.5,448.3c0,0,0-0.1,0-0.1c0,0,0-0.1,0-0.1c0-0.1-3.1-0.1-3.2,0
				c-0.1,0.1-0.5,0.1-0.6-0.1c-0.1-0.2-0.6-0.3-1.4-0.3c-0.5,0-0.6,0-0.8,0.1c-0.3,0.2-0.3,0.2-0.5,0c-0.2-0.1-1.4-0.3-1.9-0.3
				c-0.3,0-0.5,0.1-0.5,0.3c0,0.1-0.3,0.2-0.4,0.1c0,0,0-0.1,0.1-0.2c0.2-0.2,0.2-0.3,0-0.2c-0.1,0-0.2,0-0.3-0.1
				c-0.2-0.1-0.3-0.1-0.7-0.1c-0.3,0-0.9,0-1.3,0c-0.4,0-0.9,0-1,0c-0.1,0-0.2,0-0.2-0.1c0-0.1-0.1-0.1-0.9-0.1
				c-0.5,0-0.9,0.1-1,0.1c-0.1,0-0.2,0.1-0.4,0.1c-0.2,0-0.3,0.1-0.3,0.2c0,0.2-0.2,0.3-0.3,0.1c-0.1-0.1-0.1-0.1,0-0.2
				c0.1-0.1,0.1-0.4,0-0.7c-0.2-0.3-0.1-0.5,0.1-0.5c0.2,0,1-0.3,1.2-0.4c0.1-0.1,0.3-0.1,0.5-0.1c0.3,0,0.4,0,0.5-0.2
				c0.1-0.2,0.2-0.2,0.2,0c0,0.1,0.1,0.2,0.4,0.2c0.5,0.1,0.7,0,0.7-0.2c0-0.3-0.3-0.7-0.7-0.7c-0.1,0-0.1,0-0.1-0.1
				c0-0.1-0.2-0.3-0.5-0.3c-0.1,0-0.2-0.1-0.2-0.1c0-0.1,0.1-0.1,0.7-0.1c0.7,0,0.7,0,0.8,0.1c0,0.1,0.3,0.2,0.3,0.1
				c0,0,0.1-0.1,0.1-0.1c0.1,0,0.1,0,0.1-0.1c0-0.1,0.1-0.2,0.3-0.1c0.2,0.1,0.4,0,0.6-0.3c0.1-0.2,0.2-0.3,0.4-0.3
				c0.1,0,0.3,0,0.5-0.1c0.4-0.2,0.5-0.3,0.4-0.4c0-0.1-0.1-0.2-0.1-0.3c0-0.1,0-0.1,0.2-0.1c0.2,0,0.2,0,0.4,1
				c0.1,0.4,0.3,0.6,0.5,0.5c0.1,0,0.2-0.3,0-0.3c-0.1-0.1-0.1-0.2,0-0.2c0.1,0,0.2,0,0.3,0.1c0.1,0.1,0.3,0.1,0.6,0.1
				c0.4,0,0.5,0,0.5,0.1c0,0.2,0.2,0.2,0.4,0.1c0.2-0.1,0.2-0.1,0.2-0.4c-0.1-0.6-0.1-0.7,0.1-0.7c0.1,0,0.2,0,0.2,0.1
				c0,0.2,0.3,0.5,0.5,0.5c0.1,0,0.2,0,0.3,0.1c0.1,0.1,0.1,0.1,0.1,0.3c0,0.1,0,0.3,0,0.3c0.1,0.1,0.5,0,0.6-0.1
				c0.2-0.2,0.4-0.1,0.3,0c0,0.1,0.1,0.3,0.3,0.3c0.2,0,0.5,0,0.6-0.1c0,0,0.1-0.1,0-0.2c0-0.1,0-0.1,0.5-0.1c0.5,0,0.7,0.1,0.7,0.2
				c0,0-0.1,0.1-0.1,0.1c-0.1,0-0.2,0.1-0.2,0.2c0,0.1-0.1,0.2-0.2,0.3c-0.1,0.1-0.1,0.2-0.2,0.4c0,0.2,0,0.2,0.3,0.4
				c0.4,0.2,0.6,0.1,0.7-0.2c0.1-0.2,0.1-0.2,0.3-0.2c0.1,0,0.4-0.1,0.6-0.2c0.4-0.2,0.5-0.2,0.5-0.1c0,0.1,0,0.2-0.2,0.3
				c-0.3,0.2-0.3,0.3,0.1,0.4c0.4,0,0.4,0.2,0,0.2c-0.2,0-0.3,0.1-0.4,0.2c-0.2,0.2-0.2,0.4-0.2,0.6c0.1,0.1,0.4,0.3,0.8,0.3
				c0.2,0,0.4,0,0.6,0.1c0.2,0.1,0.3,0,0.5-0.1c0.1-0.1,0.3-0.2,0.3-0.2c0.1,0,0.2,0.2,0.2,0.3c-0.1,0.2,0.1,0.2,0.6,0.2
				c0.4,0,0.4,0,0.4,0.1c0,0.2,0,0.2-0.3,0.2c-0.2,0-0.4,0-0.4,0.1c0,0.1-0.7,0.5-0.8,0.5c0,0-0.1,0-0.2,0.1
				C275,448.4,274.6,448.4,274.5,448.3L274.5,448.3z M237,448.9c-0.1,0-0.3-0.1-0.5-0.2c-0.1-0.1-0.2-0.1-0.3-0.1
				c-0.1,0.1-0.7,0.1-0.8,0c-0.1-0.1-1.6-0.1-1.7,0c-0.1,0-0.2,0.1-0.4,0c-0.2,0-0.3,0-0.3,0.1c-0.1,0.1-0.1,0.1-0.2,0
				c-0.1-0.1-0.2-0.1-0.5,0c-0.4,0.1-0.6,0.1-0.6-0.1c0,0,0.1-0.1,0.1-0.1c0.2,0,0.2-0.2,0-0.4c-0.2-0.2-0.2-0.3-0.1-0.3
				c0.1,0,0.2,0,0.2,0c0.1,0,0.1,0,0.2,0.2c0.1,0.2,0.1,0.2,0.3,0.3c0.4,0.1,0.5,0,0.4-0.4c0-0.3,0-0.4,0.1-0.4
				c0.1,0,0.2-0.1,0.3-0.1c0.2-0.1,0.8-0.1,0.8,0c0,0.1,0.5,0.2,0.8,0.2c0.3,0,0.3-0.1,0.4-0.3c0-0.1,0.2-0.2,0.3-0.3
				c0.2-0.1,0.2-0.3,0-0.4c-0.1,0-0.1-0.1-0.1-0.1c0-0.1,0.3-0.1,0.9,0c0.5,0,0.8,0,0.8,0c0,0,0-0.1-0.1-0.2c-0.1-0.1-0.1-0.2,0-0.2
				c0.2-0.1,0.3,0,0.3,0.2c0,0.2,0.1,0.3,0.4,0.3c0.1,0,0.2,0,0.3,0.1c0.1,0.1,0.1,0.1,0.2,0.1c0,0,0.2,0,0.3,0c0.1,0,0.3,0,0.3,0
				c0.1,0,0.2,0,0.4,0c0.2,0.1,0.2,0.1,0.4-0.1c0.1-0.1,0.2-0.2,0.2-0.2c0,0,0.1,0,0.2-0.1c0.1,0,0.2,0,0.2,0c0,0,0.1,0.1,0.2,0.2
				c0.1,0.1,0.2,0.2,0.2,0.2c0,0.1,0,0.1,0.3,0.1c0.3,0,0.5-0.2,0.5-0.3c0-0.1,0-0.2,0.1-0.2c0.1-0.1,0.1-0.1,0.4,0
				c0.2,0.1,0.4,0.2,0.5,0.3c0.2,0.2,0.4,0.2,0.6,0c0.1-0.1,0.2-0.1,0.4-0.1c0.2,0,0.3,0,0.4,0c0.1-0.1,0.9-0.3,1-0.2
				c0,0,0,0.1,0,0.2c0,0.1,0,0.2,0,0.3c0,0.1,0.1,0.1,0.3,0.1c0.2,0,0.3,0,0.3-0.2c0-0.2,0.2-0.2,0.3,0c0,0.1,0.1,0.1,0.2,0.1
				c0.2,0,0.3,0,0.3,0.2c0,0.3,0.4,0.4,0.8,0.1c0.2-0.1,0.3-0.1,0.5-0.1c0.1,0,0.2,0.1,0.2,0.2c0,0.1,0,0.1-0.3,0.1
				c-0.5,0-0.8,0.1-0.8,0.3c0,0.1-0.1,0.3-0.3,0.4l-0.3,0.3l-0.5,0c-0.5,0-0.5,0-0.6,0.1l-0.1,0.1l-0.2-0.2
				c-0.1-0.1-0.2-0.2-0.3-0.1c-0.1,0-0.1,0-0.1-0.1c0-0.1,0-0.1-0.2-0.1c-0.1,0-0.3,0.1-0.5,0.1c-0.2,0-0.3,0.1-0.4,0.1
				c0,0.1-0.1,0.1-0.4,0.1c-0.2,0-0.4,0-0.5,0c-0.1,0-0.1,0-0.2,0c-0.1-0.1-0.4-0.1-0.8,0c-0.3,0-1,0.1-1.3,0.1
				c-0.2,0-0.3,0-0.3,0.1c0,0-0.2,0-0.3,0c-0.1,0-0.3,0-0.4,0.1c-0.1,0-0.3,0.1-0.6,0.1c-0.4,0.1-0.5,0.1-0.6,0
				c-0.1-0.1-0.2-0.1-0.3,0C237.5,449,237.3,449,237,448.9L237,448.9z M340.2,450.1c0-0.1,0-0.2,0-0.3l0.1-0.2l-0.3,0
				c-0.2,0-0.3,0-0.3-0.1c0-0.1-0.1-0.1-0.5,0c-0.2,0.1-0.5,0.1-1.1,0.1c-1.1,0-1.5,0-1.8-0.1c-0.3,0-0.3,0-0.4,0
				c-0.1,0.1-0.1,0.1-0.3,0c-0.2-0.1-0.5,0-0.5,0.2c-0.1,0.2-0.3,0.2-0.3,0c0-0.1,0-0.2,0-0.2c0,0-0.1-0.1-0.2-0.1
				c-0.2,0-0.6,0-0.8,0c-0.1,0-0.4,0-0.6,0c-0.2,0-0.4,0-0.5,0c0,0-0.1,0.1-0.1,0.2c0,0.1-0.1,0.2-0.2,0.2c-0.1,0-0.2-0.1-0.3-0.2
				c-0.1-0.1-0.1-0.2-0.4-0.2c-0.2,0-0.5,0-0.7-0.1c-0.3-0.1-0.4-0.1-0.5,0c-0.3,0.2-0.7,0.2-0.6,0c0-0.1,0-0.1-0.3-0.1
				c-0.2,0-0.3-0.1-0.3-0.1c0-0.2,0.2-0.2,0.5-0.2c0.3,0.1,0.3,0.1,0.5-0.1c0.1-0.1,0.4-0.2,0.5-0.3c0.3-0.1,0.3-0.1,0.5,0
				c0.3,0.1,0.6,0.1,0.6,0c0,0,0.1-0.1,0.1-0.2c0.1,0,0.1-0.1,0.1-0.1c-0.1-0.1,0.1-0.4,0.4-0.5c0.6-0.2,0.6-0.1,0.5,0.2
				c-0.1,0.1,0,0.1,0.2,0c0.2-0.1,0.3-0.2,0.3-0.3c0-0.2,0.2-0.3,0.3-0.1c0,0.1,0.1,0.1,0.1,0.1c0.1,0,0-0.4-0.1-0.4
				c-0.2-0.1-0.2-0.3-0.1-0.5c0.1-0.1,0.1-0.3,0.1-0.5c0-0.3,0-0.4,0.1-0.4c0.2-0.1,0.2,0,0.2,0.3c0,0.2,0.1,0.4,0.3,0.6
				c0.2,0.3,0.3,0.3,0.4,0.3c0.1,0,0.1-0.1,0.1-0.2c0,0,0.1-0.1,0.1-0.1c0.1,0,0.1-0.1,0.1-0.2c0-0.1,0-0.1,0.1-0.2
				c0.1,0,0.1,0,0.1-0.1c-0.1,0-0.2-0.1-0.3-0.1c-0.2,0-0.2-0.2,0-0.3c0.1,0,0.2-0.1,0.3-0.2c0.1-0.1,0.1-0.2,0.3-0.1
				c0.1,0,0.3,0,0.3,0c0,0,0.1,0,0.2,0c0.1,0,0.1,0.1,0.1,0.3c-0.1,0.4,0.1,0.5,0.5,0.4c0.2,0,0.4-0.1,0.5-0.2
				c0.1-0.1,0.3-0.2,0.5-0.2c0.3,0,0.3,0,0.3-0.2c0-0.1,0-0.2-0.1-0.3c-0.1-0.1,0-0.1,0.1-0.2l0.2-0.2l-0.2-0.3
				c-0.2-0.4-0.2-0.5,0.1-0.4c0.1,0,0.2,0.1,0.2,0.2c0,0.1,0.2,0.2,0.3,0.4c0.2,0.2,0.3,0.3,0.3,0.4c0,0.2,0.1,0.3,0.2,0.4
				c0.1,0,0.1,0.1,0.1,0.1c0,0.2,0.2,0.1,0.4-0.1c0.4-0.4,0.6-0.6,0.9-0.6c0.2,0,0.2,0,0.2,0.2c0,0.2,0,0.3-0.1,0.4
				c-0.1,0.1-0.2,0.3-0.2,0.4c0,0.2,0.1,0.2,0.4,0.3c0.2,0.1,0.4,0.1,0.5,0.1c0,0,0.1-0.1,0.1-0.3c0-0.1,0.1-0.3,0.1-0.3
				c0,0,0.1,0.1,0.3,0.2c0.3,0.2,0.4,0.2,0.4-0.1c0-0.2,0-0.2,0.2-0.2c0.1,0,0.2,0,0.2,0.1c0,0.1,0.1,0.1,0.1,0.2
				c0.1,0,0.1,0.1,0.1,0.1c0,0.1-0.1,0.2-0.1,0.2c0,0.1,0,0.1,0.1,0.1c0.2,0,0.2,0,0.2,0.2c0,0.2,0,0.2,0.3,0.3
				c0.3,0.1,0.3,0.1,0.5,0c0.1-0.1,0.2-0.1,0.3-0.1c0.2,0,0.8,0.3,1.2,0.5c0.2,0.1,0.4,0.2,0.5,0.3c0.1,0,0.2,0.1,0.2,0.2
				s0.1,0.2,0.2,0.2c0.2,0.1,0.2,0.1,0.2,0.3c0,0.3,0.1,0.4,0.4,0.3c0.2,0,0.3,0,0.3-0.2c0-0.2,0.3-0.3,0.3-0.1
				c0.1,0.3,0.1,0.8-0.1,0.9c-0.2,0.2-0.8,0.3-1.2,0.1c-0.4-0.2-0.7-0.2-0.9,0c-0.2,0.2-0.3,0.2-0.3,0c0-0.1,0-0.1-0.1-0.1
				c-0.1,0-0.2,0.1-0.4,0.1c-0.1,0-0.3,0-0.4,0.1c-0.1,0-0.4,0.1-0.8,0.1c-0.5,0-0.6,0-0.7-0.1c-0.1-0.1-0.1-0.1-0.1,0
				c0,0.1,0,0.1-0.3,0.1c-0.2,0-0.4,0-0.5,0c-0.1,0.1-0.2,0.1-0.2-0.1c-0.1-0.2-0.5-0.2-0.5,0C340.4,450.2,340.3,450.3,340.2,450.1
				L340.2,450.1z M182,450.6c-0.1-0.1-0.2-0.2-0.3-0.2c-0.2-0.1-0.2,0-0.4,0.1l-0.2,0.2l-0.2-0.1l-0.2-0.1l-0.2,0.1
				c-0.2,0.2-0.4,0.2-0.4,0c0-0.1-0.1-0.1-0.7-0.1c-0.4,0-0.9,0-1.2,0.1c-0.6,0.1-0.7,0-0.6-0.2c0-0.1-0.1-0.1-0.3-0.1
				c-0.3,0-0.4,0-0.4,0.1c0,0.1-0.3,0.1-0.4,0c-0.1-0.1-1.9-0.2-2.2-0.2c-0.2,0-0.3,0-0.4,0c-0.1,0-0.5-0.1-1.2-0.1
				c-1.2,0-1.4-0.1-1.5-0.2c-0.1-0.1-0.3-0.1-0.4,0.1c-0.1,0.2-0.2,0.2-0.3,0c0-0.1,0-0.1-0.5-0.1c-0.6,0.1-0.6,0.1-0.7,0.3
				c-0.1,0.2-0.3,0.2-0.4,0c0-0.1-0.1-0.2-0.2-0.1c-0.1,0-0.4,0-0.7,0c-0.3,0-0.6,0-0.6,0.1c0,0-0.1,0-0.2-0.1
				c-0.1-0.1-0.3-0.1-0.8-0.1c-0.7,0-1,0.1-1.2,0.3c-0.1,0.1-0.2,0.2-0.2,0.2c-0.2,0-0.1-0.2,0.1-0.4c0.2-0.2,0.2-0.3,0.2-0.4
				c0-0.2,0-0.2,0.2-0.2c0.2,0,0.2-0.1,0.2-0.1c0-0.2,0.2-0.5,0.3-0.5c0.2,0,0.2,0.1,0.1,0.4c-0.1,0.2-0.1,0.3,0.1,0.3
				c0.3,0,0.5-0.1,0.5-0.6c0-0.3,0.1-0.5,0.1-0.5c0,0,0.2,0,0.4,0c0.2,0,0.3,0,0.3-0.1c0.1-0.2,0.3-0.2,0.5,0
				c0.1,0.1,0.2,0.2,0.1,0.2c-0.1,0.1,0.1,0.4,0.2,0.4c0.1,0,0.3,0,0.5-0.1c0.3-0.1,0.4-0.1,0.4-0.2c0-0.3,0-0.4-0.2-0.6
				c-0.1-0.2-0.2-0.3-0.2-0.6c0-0.6,0.1-0.6,0.5-0.3c0.3,0.3,0.3,0.3,0.4,0.2c0.2-0.1,0.3,0,0.2,0.2c0,0.1,0,0.4,0.1,0.8
				c0,0.1,0.5,0,0.7-0.1c0.1-0.1,0.2-0.2,0.3-0.2c0.1,0,0.2-0.1,0.2-0.3c0-0.1,0.1-0.2,0.1-0.3c0.1,0,0.1-0.1,0.1-0.3
				c0-0.2,0-0.3,0.1-0.3c0.1,0,0.2-0.1,0.2-0.1c0,0,0.1,0,0.2,0c0.1,0,0.3,0.1,0.4,0.1h0.3l0.1-0.9l0.1-0.9l0.3-0.1
				c0.2,0,0.4-0.1,0.5-0.2c0.1-0.1,0.2-0.1,0.2-0.1c0.1,0.1,0,0.6-0.1,1c-0.2,0.4,0.1,1,0.3,1c0.2,0,0.3-0.4,0.4-0.9
				c0-0.3,0.1-0.3,0.2-0.3c0.1,0,0.1,0.1,0.1,0.3c0,0.2,0,0.3,0.2,0.5c0.3,0.2,0.4,0.8,0.3,0.9c-0.2,0.2-0.2,0.4-0.1,0.7
				c0.1,0.3,0.3,0.4,0.4,0.3c0.2-0.1,0.2-0.2,0.3-0.7l0-0.4l0.2,0c0.2,0,0.3,0,0.3,0.2c0,0.1,0.2,0.3,0.2,0.4
				c0.1,0.1,0.2,0.2,0.2,0.3c0,0.2,0.1,0.3,0.4,0.3c0.3,0,0.5-0.1,0.5-0.4c0-0.2,0-0.2,0.4-0.3c0.5-0.1,0.7-0.1,0.8,0
				c0,0,0.2,0.1,0.4,0.1c0.4,0,0.6,0.2,0.5,0.3c0,0.1,0,0.1,0,0c0,0,0.1-0.1,0.1-0.1c0.1,0.1,0.4-0.1,0.4-0.2
				c-0.1-0.1,0-0.2,0.2-0.2c0.1,0.1,0.1,0.1,0.2-0.2c0.1-0.2,0.1-0.2,0.3-0.2c0.2,0,0.2,0,0.3,0.2c0.1,0.2,0.5,0.4,0.9,0.4
				c0.3,0,0.5,0,0.3,0.1c-0.1,0-0.3,0.1-0.5,0.2c-0.2,0.1-0.5,0.1-0.5,0.2c-0.1,0.1-0.1,0.1-0.2,0.1c-0.1,0-0.2,0.1-0.2,0.5
				c0,0.2,0,0.3,0.2,0.3c0.2,0.1,0.2,0.1,0.4,0c0.1-0.2,0.4-0.2,0.4,0c0,0,0.1,0.1,0.2,0.1c0.1,0,0.2,0.1,0.2,0.1
				c0,0.3,0.3,0.6,0.7,0.6c0.1,0,0.3,0.1,0.4,0.1c0.2,0.1,0.4,0.1,0.4,0c0-0.1,0.2-0.2,0.3-0.1c0,0,0.1,0.1,0,0.2
				c-0.1,0.2,0.1,0.3,0.3,0.2c0.3-0.2,0.4,0.1,0.1,0.3c-0.1,0.1-0.2,0.2-0.2,0.3c-0.1,0.2-0.2,0.2-1,0.6c-0.2,0.1-0.2,0.1-0.7-0.2
				c-0.1-0.1-0.2-0.1-0.3,0c-0.1,0-0.2,0.1-0.3,0.1c-0.1,0-0.2,0-0.2,0.1c0,0,0,0.1-0.1,0.2C182.1,450.8,182.1,450.8,182,450.6
				 M67.3,450.8c-0.1,0-0.3-0.1-0.5-0.1c-0.5,0-1-0.6-0.7-0.8c0.1,0,0.3-0.1,0.5-0.1c0.3,0,0.4,0,0.5-0.2c0.1-0.1,0.1-0.2,0-0.3
				c-0.1-0.1-0.2-0.2-0.2-0.2c-0.1,0-0.2-0.1-0.2-0.1c-0.1,0-0.2,0-0.2,0c-0.1,0-0.1,0-0.2-0.1c-0.1-0.2-0.4-0.3-0.6-0.2
				c-0.1,0.1-0.1,0.1-0.2-0.1c0-0.1,0-0.1,0.1-0.1c0.1,0,0.3,0,0.4-0.1c0.4-0.2,1.6-0.1,1.8,0.2c0.1,0.1,0.2,0.1,0.5,0.1
				c0.3,0,0.4,0,0.5-0.1c0-0.1,0.2-0.2,0.4-0.3c0.3-0.1,0.4-0.2,0.6-0.1c0.5,0.1,1.7,0.1,1.6,0c-0.1-0.1,0-0.3,0.1-0.3
				c0.1,0,0.2-0.1,0.2-0.3c0-0.1,0.1-0.4,0.2-0.5c0.1-0.1,0.2-0.3,0.2-0.4c0-0.1,0-0.2,0.1-0.2c0.1,0,0.4,0.1,0.5,0.3
				c0.3,0.2,1,0.1,1.3-0.2c0.1-0.1,0.2-0.2,0.3-0.1c0.2,0.1,0,0.4-0.3,0.5c-0.3,0.1-0.5,0.3-0.3,0.4c0,0,0.8-0.1,1-0.2
				c0.2-0.1,0.4,0,0.5,0.1c0,0.1,0.5,0.3,0.7,0.3c0.1,0,0-0.2-0.1-0.3c-0.1-0.1-0.2-0.4-0.1-0.4c0,0,0.1,0,0.2,0.1
				c0.1,0.1,0.2,0.1,0.3,0.1c0.1,0,0.2,0.1,0.2,0.3c0.1,0.3,0.1,0.3,0.3,0.3c0.3,0,0.5,0.1,0.8,0.3c0.1,0.1,0.3,0.2,0.4,0.2
				c0.1,0,0.2,0,0.2,0.1c0.1,0.1,0.2,0.1,0.2,0.1c0.1,0,0.2,0,0.3,0.1c0.1,0.1,0.3,0.1,0.4,0.2c0.1,0,0.2,0.1,0.2,0.1
				c0,0.1,0.7,0.4,0.9,0.4c0.1,0,0.2-0.1,0.3-0.2c0.2-0.3,0.3-0.3,0.4,0c0,0.1,0.1,0.3,0.1,0.3c0,0,0.4,0,0.7,0c0.7,0,0.7,0,0.7,0.1
				c0,0.1,0,0.2-0.1,0.2c-0.1,0-0.1,0.2-0.1,0.2c0,0.1,0,0.2-0.1,0.2c-0.1,0-0.2,0.1-0.3,0.2c-0.2,0.2-0.2,0.2-0.6,0.1
				c-0.2-0.1-0.4-0.1-0.5-0.1c-0.1,0-0.3,0-0.5,0c-0.3-0.1-1.1,0-1.1,0.1c0,0-0.1,0.1-0.1,0.2c-0.1,0.1-0.4,0.1-0.3-0.1
				c0-0.1-0.1-0.1-0.3-0.1c-0.2,0-0.4-0.1-0.5-0.1c-0.2-0.1-0.6-0.1-0.7,0c-0.2,0.1-1,0.1-1.2,0c-0.2-0.1-0.2-0.1-0.4,0
				c-0.1,0-0.2,0.1-0.4,0c-0.1,0-0.2,0-0.3,0c-0.1,0.1-0.2,0-0.3,0c-0.1-0.1-0.1-0.1-0.2,0c-0.1,0.1-0.2,0.1-1.2,0.1
				c-0.3,0-0.8,0-1,0.1c-0.3,0.1-0.5,0.1-0.8,0.1c-0.3,0-0.3,0-0.3,0.1c0,0.1,0,0.1-0.3,0c-0.3-0.1-0.6-0.1-0.8,0
				c-0.3,0.1-0.5,0.1-0.7,0c-0.1-0.1-0.4-0.1-0.7-0.1c-0.5,0-0.6,0-0.7,0.1c-0.2,0.2-0.2,0.3,0.2,0.4c0.2,0,0.3,0.1,0.3,0.1
				C68.2,450.9,67.5,450.9,67.3,450.8z M122.7,451.5c0,0,0-0.2,0-0.3c0.1-0.3,0.1-0.4-0.1-0.4c-0.1,0-0.2,0-0.3,0.1
				c-0.1,0.2-0.5,0-0.5-0.3c0-0.1,0.6-0.3,1-0.3c0.4,0,0.4,0,0.5-0.2c0.1-0.3,0.1-0.5-0.1-0.6c-0.1,0-0.1-0.1-0.1-0.2
				c0.1-0.3,0.2-0.4,0.4-0.4c0.1,0,0.2,0.1,0.2,0.3c0,0.3,0,0.3,0.2,0.4c0.4,0.2,0.8,0,0.5-0.2c-0.1-0.1-0.1-0.1,0-0.2
				c0.1,0,0.2-0.1,0.3-0.1c0.1,0,0.2-0.1,0.3-0.2c0.1-0.1,0.2-0.2,0.2-0.2c0.2,0,0.3-0.2,0.2-0.5c0-0.2,0-0.2,0.1-0.2
				c0.1,0,0.2,0,0.2-0.2c0.1-0.2,0.3-0.2,0.6,0.1c0.1,0.2,0.3,0.3,0.3,0.3c0.2,0.1,0.5,0,0.7-0.3c0.2-0.2,0.3-0.3,0.3-0.1
				c0,0,0.1,0.2,0.2,0.3c0.1,0.1,0.2,0.2,0.4,0.2c0.2,0,0.2-0.1,0.3-0.3c0.1-0.2,0.1-0.4,0.2-0.4c0.1-0.2,0.2-0.5,0.2-0.6
				c0-0.7,0-0.7,0.4-0.5c0.2,0.1,0.2,0.1,0.3,0.6c0,0.3,0,0.5,0,0.6c-0.1,0.2-0.1,0.3,0,0.4c0.2,0.1,0.4,0,0.6-0.4
				c0.1-0.2,0.3-0.3,0.4-0.4c0.2-0.1,0.6,0,0.8,0.2c0.1,0.1,0.1,0.1-0.1,0.2c-0.2,0.1-0.2,0.2-0.2,0.4c0,0.2,0,0.3,0.2,0.2
				c0.3,0,0.9-0.2,1.2-0.4c0.2-0.1,0.4-0.1,0.4,0c0,0,0.1,0.1,0.2,0.2c0.1,0.1,0.2,0.2,0.2,0.3c0,0.2,0.1,0.3,0.4,0.3
				c0.1,0,0.2,0,0.3,0.1c0,0,0.2,0.1,0.4,0.2c0.3,0.1,0.4,0.2,0.4,0.3c0,0.2,0.2,0.3,0.8,0.3c0.4,0,0.5,0.1,0.4,0.1
				c-0.1,0-0.1,0.1-0.1,0.2c0,0.2-0.2,0.4-0.4,0.4c0,0-0.2,0.1-0.4,0.1c-0.2,0.1-0.4,0.1-0.4,0.1c0,0-0.1,0-0.1,0.1
				c-0.1,0.2-0.2,0.2-0.3-0.1c0-0.1-0.1-0.2-0.1-0.2c-0.1,0-0.2,0.1-0.2,0.3c0,0.2-0.2,0.1-0.2-0.1c0-0.1-0.1-0.1-1.2-0.1
				c-1.1,0-1.7,0-2.5,0.2c-0.7,0.1-1.2,0.2-2.5,0.2c-0.7,0-1.2,0-1.2,0c0,0-0.3,0-0.8,0c-0.4,0-0.8,0-0.8,0.1c0,0-0.2,0-0.3,0
				c-0.2,0-0.4,0-0.7,0c-0.4,0.1-0.6,0.1-0.6,0.4C123,451.6,122.8,451.6,122.7,451.5 M365.6,452.2c0,0,0-0.2-0.1-0.2
				c0-0.1-0.1-0.2-0.1-0.1c-0.1,0-0.4,0-0.8,0.1c-0.4,0-0.8,0.1-0.8,0.1c0,0-0.2,0-0.2,0c-0.1,0-0.2,0-0.2,0.1
				c-0.1,0.1-0.2,0.1-0.4-0.1c-0.1-0.1-0.2-0.2-0.3-0.2c-0.1,0-0.2-0.1-0.2-0.1c0-0.1-0.1-0.1-0.1-0.1c-0.4,0-1,0-1.2,0.1
				c-0.1,0-0.3,0.1-0.5,0.1c-0.2,0-0.2,0-0.2,0.1c0,0.2-0.2,0.2-0.5,0c-0.2-0.2-0.2-0.2-0.2-0.3c0-0.1,0.2-0.2,0.3-0.3
				c0.3-0.2,0.5-0.5,0.5-0.6c0,0,0-0.2,0.2-0.4c0.1-0.2,0.2-0.4,0.1-0.5c0-0.2,0-0.2,0.1-0.3c0.2-0.1,0.4,0.2,0.4,0.5
				c0,0.2,0,0.3,0.2,0.3c0.4,0.1,0.9,0.1,1-0.1c0.1-0.1,0.1-0.2,0.3-0.2c0.3,0,0.6,0.1,0.6,0.2c0,0,0.1,0.1,0.2,0.2
				c0.2,0.1,0.3,0.1,0.6-0.1c0.3-0.1,0.3-0.1,0.3-0.4c0-0.2,0-0.2,0.1-0.2c0.1,0,0.3,0.1,0.4,0.1c0.2,0,0.2,0.1,0.3,0.2
				c0,0.1,0.1,0.2,0.3,0.3c0.2,0.1,0.2,0.1,0.6-0.1c0.4-0.2,0.5-0.3,0.5-0.4c0-0.2,0.5-0.3,0.6-0.2c0.1,0.4,0.3,0.5,0.5,0.4
				c0.1,0,0.2,0,0.3,0c0.3,0.2,0.3,0.2,0.2,0.4c-0.1,0.2-0.1,0.3,0,0.5c0.1,0.2,0.4,0.4,0.9,0.5c0.1,0,0.1,0.1-0.1,0.3
				c-0.3,0.3-0.7,0.5-0.9,0.4c-0.1,0-0.2-0.1-0.4-0.1c-0.2,0-0.3,0-0.3-0.2c0-0.1-0.1-0.2-0.2-0.2c-0.2-0.1-1,0-1,0.1
				c0,0-0.1,0.1-0.3,0.2c-0.1,0-0.3,0.1-0.3,0.2C365.8,452.3,365.7,452.3,365.6,452.2 M49.8,452.4c0,0,0-0.1,0-0.1
				c0-0.1-0.5-0.1-0.7,0c-0.2,0.1-0.8,0-0.9-0.1c-0.1-0.1-0.2-0.2-0.3-0.2c-0.1,0-0.2,0-0.2,0c0-0.3,0-0.5,0.1-0.6
				c0.1-0.1,0.1-0.3,0.1-0.6v-0.5l0.2,0c0.1,0,0.3,0.1,0.4,0.1c0.3,0.1,0.4,0,0.3-0.3c-0.1-0.3,0-0.4,0.4-0.4c0.2,0,0.3,0,0.4,0.4
				c0.2,0.5,0.4,0.5,0.7,0.2c0.2-0.2,0.2-0.2,0.7-0.2c0.4,0,0.5,0,0.6-0.1c0.1-0.1,0.2-0.2,0.3-0.2c0.1-0.1,0.2-0.2,0.2-0.4
				c0-0.2,0-0.3,0.1-0.3c0.1,0,0.1,0.1,0.1,0.2c0,0.2,0.1,0.3,0.2,0.3c0.1,0.1,0.3,0.2,0.3,0.3c0.1,0.1,0.2,0.2,0.5,0.2
				c0.4,0,0.4,0,0.2-0.2c-0.2-0.2-0.1-0.2,0.3-0.3c0.2-0.1,0.3,0,0.3,0c0.1,0.1,0.1,0.1,0,0.2c-0.1,0.2-0.1,0.2,0.3,0.5l0.4,0.2
				l0.1-0.2c0.1-0.2,0.3-0.2,0.4-0.1c0,0,0,0.1-0.1,0.2l-0.2,0.1l0.3,0.2c0.1,0.1,0.3,0.2,0.2,0.3c0,0-0.2,0.1-0.4,0.1
				c-0.3,0-0.4,0-0.4,0.2c0,0.1-0.1,0.2-0.3,0.3c-0.1,0-0.3,0.1-0.3,0.2c-0.1,0.1-0.2,0.1-0.3,0.1c-0.1,0-0.3,0-0.3-0.1
				c0,0-0.1-0.1-0.2-0.1c-0.2-0.1-0.3-0.1-0.5,0c-0.1,0-0.4,0.1-0.6,0.1c-0.2,0-0.4,0-0.4,0.1c0,0-0.3,0.1-0.6,0.1
				c-0.5,0-0.6,0-0.8,0.2c-0.1,0.1-0.2,0.2-0.2,0.2C50.1,452.5,49.9,452.5,49.8,452.4L49.8,452.4z M88,452.9c0-0.1-0.1-0.2-0.2-0.2
				c-0.1-0.1-0.2-0.1-0.2-0.2c0-0.1,0.1-0.2,0.4-0.2c0.2,0,0.5-0.1,0.6-0.1l0.3-0.1l0-0.8c0-0.5,0-0.8,0.1-0.9
				c0.1-0.2,0.3-0.2,0.3-0.1c0,0,0,0.1,0,0.1c0,0,0,0.2,0,0.3c0,0.2,0.1,0.2,0.4,0.4c0.7,0.3,0.8,0.3,1.1,0c0.1-0.1,0.2-0.3,0.3-0.4
				c0-0.1,0.1-0.2,0.2-0.3c0.3-0.2,0.5,0,0.3,0.3c-0.1,0.1-0.1,0.4,0.1,0.5c0.1,0,0.2,0.1,0.3,0.2c0.1,0.1,0.3,0.1,0.5,0.1l0.2,0
				l0-0.5c0-0.4,0-0.5,0.1-0.6c0.1,0,0.1-0.5,0-0.7c0-0.1,0-0.1,0.2-0.1c0.3,0,0.5-0.1,0.5-0.4c0.1-0.5,0.4-0.1,0.5,0.6l0,0.3l0.4,0
				c0.2,0,0.5,0,0.6,0c0.1,0,0.2,0,0.2-0.1c0-0.2,0.3-0.3,0.7-0.2c0.4,0,0.7,0.2,0.6,0.3c-0.1,0.1-0.1,0.1-0.7,0
				c-0.2,0-0.2,0-0.3,0.1c-0.1,0.1-0.1,0.2,0,0.3c0.1,0.1,0.2,0.1,0.6,0.1c0.7,0,0.8,0,0.9,0.4c0.1,0.2,0.1,0.3,0.3,0.3
				c0.2,0,0.2,0,0.2-0.2c0-0.4,0.4-0.3,0.4,0.1c0,0.2,0,0.2,0.3,0.3c0.3,0.1,0.4,0.3,0.2,0.5c-0.2,0.1-0.2,0.3-0.2,0.5
				c0,0.1,0,0.1,0,0.2c-0.1,0.1-0.3,0-0.3-0.2c0-0.1-0.1-0.1-0.2-0.1c-0.1,0-0.3,0-0.4-0.1c-0.1-0.1-0.2-0.1-0.2,0
				c-0.1,0.1-0.5,0.1-0.9,0c-0.2,0-0.3,0-0.5,0.1c-0.1,0.1-0.4,0.1-0.7,0.2c-0.2,0-0.6,0.1-0.7,0.1c-0.2,0.1-0.3,0.1-0.2,0
				c0-0.1,0-0.1-0.1-0.1c-0.1,0-0.3,0.1-0.5,0.1c-0.2,0-0.4,0.1-0.4,0.1c0,0.1-0.2,0.2-0.4,0.2c0,0-0.1-0.1,0-0.1
				c0-0.1,0-0.1-0.6-0.1c-0.6,0-0.8,0-0.8,0.2c0,0.2,0,0.3-0.1,0.3c-0.1,0-0.1-0.1-0.1-0.2v-0.2h-0.5c-0.3,0-0.6,0-0.6-0.1
				c-0.1,0-0.1,0-0.2,0c0,0-0.3,0.1-0.7,0.1c-0.5,0-0.6,0-0.8,0.2C88.1,453.1,88,453.1,88,452.9L88,452.9z"/>
		</g>
	</g>
	<g>
		<g>
			<path class="st1" d="M79.5,408.7l38.6-23.3c7.4,13.2,14.2,24.4,30.4,24.4c15.6,0,25.4-6.1,25.4-29.8v-161h47.4v161.7
				c0,49.1-28.8,71.4-70.7,71.4C112.7,452,90.7,432.4,79.5,408.7z"/>
			<path class="st1" d="M247,403.6l38.6-22.3c10.1,16.6,23.3,28.8,46.7,28.8c19.6,0,32.1-9.8,32.1-23.3c0-16.2-12.9-22-34.5-31.5
				l-11.8-5.1c-34.2-14.5-56.8-32.8-56.8-71.4c0-35.5,27.1-62.6,69.4-62.6c30.1,0,51.8,10.5,67.3,37.9L361,277.8
				c-8.1-14.5-16.9-20.3-30.4-20.3c-13.9,0-22.7,8.8-22.7,20.3c0,14.2,8.8,20,29.1,28.8l11.8,5.1c40.3,17.3,62.9,34.8,62.9,74.4
				c0,42.6-33.5,66-78.5,66C289.3,452,260.9,431,247,403.6z"/>
		</g>
	</g>
	<g>
		<g>
			<path class="st5" d="M0.8,252l8.4-26l-22.2-16h27.6l8.5-25.9l8.5,25.9h27.6L37,226l8.4,26l-22.3-16L1.3,251.6L0.8,252z"/>
		</g>
	</g>
	<g>
		<g>
			<rect x="-53" y="563.8" class="st5" width="505.9" height="85"/>
		</g>
	</g>
</g>
</svg>
